<svg id="visual" viewBox="0 0 960 540" width="960" height="540" xmlns="http://www.w3.org/2000/svg" xmlns:xlink="http://www.w3.org/1999/xlink" version="1.1"><rect x="0" y="0" width="960" height="540" fill="#001220"></rect><path d="M0 369L22.8 363.8C45.7 358.7 91.3 348.3 137 339.8C182.7 331.3 228.3 324.7 274 326.8C319.7 329 365.3 340 411.2 353.2C457 366.3 503 381.7 548.8 384.5C594.7 387.3 640.3 377.7 686 376.3C731.7 375 777.3 382 823 380.2C868.7 378.3 914.3 367.7 937.2 362.3L960 357L960 541L937.2 541C914.3 541 868.7 541 823 541C777.3 541 731.7 541 686 541C640.3 541 594.7 541 548.8 541C503 541 457 541 411.2 541C365.3 541 319.7 541 274 541C228.3 541 182.7 541 137 541C91.3 541 45.7 541 22.8 541L0 541Z" fill="#fa7268"></path><path d="M0 419L22.8 419.8C45.7 420.7 91.3 422.3 137 424.3C182.7 426.3 228.3 428.7 274 417.7C319.7 406.7 365.3 382.3 411.2 370.7C457 359 503 360 548.8 361.5C594.7 363 640.3 365 686 372.3C731.7 379.7 777.3 392.3 823 393.7C868.7 395 914.3 385 937.2 380L960 375L960 541L937.2 541C914.3 541 868.7 541 823 541C777.3 541 731.7 541 686 541C640.3 541 594.7 541 548.8 541C503 541 457 541 411.2 541C365.3 541 319.7 541 274 541C228.3 541 182.7 541 137 541C91.3 541 45.7 541 22.8 541L0 541Z" fill="#ef5f67"></path><path d="M0 409L22.8 412.7C45.7 416.3 91.3 423.7 137 430.8C182.7 438 228.3 445 274 447.5C319.7 450 365.3 448 411.2 438.5C457 429 503 412 548.8 404.3C594.7 396.7 640.3 398.3 686 399.7C731.7 401 777.3 402 823 406.3C868.7 410.7 914.3 418.3 937.2 422.2L960 426L960 541L937.2 541C914.3 541 868.7 541 823 541C777.3 541 731.7 541 686 541C640.3 541 594.7 541 548.8 541C503 541 457 541 411.2 541C365.3 541 319.7 541 274 541C228.3 541 182.7 541 137 541C91.3 541 45.7 541 22.8 541L0 541Z" fill="#e34c67"></path><path d="M0 466L22.8 463.5C45.7 461 91.3 456 137 459.2C182.7 462.3 228.3 473.7 274 478.3C319.7 483 365.3 481 411.2 481.5C457 482 503 485 548.8 484.8C594.7 484.7 640.3 481.3 686 477.3C731.7 473.3 777.3 468.7 823 467.7C868.7 466.7 914.3 469.3 937.2 470.7L960 472L960 541L937.2 541C914.3 541 868.7 541 823 541C777.3 541 731.7 541 686 541C640.3 541 594.7 541 548.8 541C503 541 457 541 411.2 541C365.3 541 319.7 541 274 541C228.3 541 182.7 541 137 541C91.3 541 45.7 541 22.8 541L0 541Z" fill="#d53867"></path><path d="M0 472L22.8 475.3C45.7 478.7 91.3 485.3 137 491.8C182.7 498.3 228.3 504.7 274 508.7C319.7 512.7 365.3 514.3 411.2 511.8C457 509.3 503 502.7 548.8 501.7C594.7 500.7 640.3 505.3 686 504.8C731.7 504.3 777.3 498.7 823 499.5C868.7 500.3 914.3 507.7 937.2 511.3L960 515L960 541L937.2 541C914.3 541 868.7 541 823 541C777.3 541 731.7 541 686 541C640.3 541 594.7 541 548.8 541C503 541 457 541 411.2 541C365.3 541 319.7 541 274 541C228.3 541 182.7 541 137 541C91.3 541 45.7 541 22.8 541L0 541Z" fill="#c62368"></path></svg>